<svg xmlns="http://www.w3.org/2000/svg" viewBox="0 0 200 300" role="img" aria-label="E and J V S illustration" class="ph"><defs><linearGradient id="g62443" x1="0" x2="1"><stop offset="0" stop-color="#5b2a10"/><stop offset=".3" stop-color="#a8582a"/><stop offset=".62" stop-color="#5b2a10"/><stop offset="1" stop-color="#000"/></linearGradient><linearGradient id="g62443v" x1="0" y1="0" x2="0" y2="1"><stop offset="0" stop-color="#fff" stop-opacity=".18"/><stop offset=".5" stop-color="#fff" stop-opacity="0"/><stop offset="1" stop-color="#000" stop-opacity=".25"/></linearGradient><clipPath id="g62443c"><path d="M90 24h20v44c0 8 40 24 40 70v118c0 12-8 20-20 20H70c-12 0-20-8-20-20V138c0-46 40-62 40-70z"/></clipPath><radialGradient id="g62443s" cx=".5" cy=".5" r=".5"><stop offset="0" stop-color="#000" stop-opacity=".22"/><stop offset="1" stop-color="#000" stop-opacity="0"/></radialGradient></defs><ellipse cx="100" cy="288" rx="62" ry="7" fill="url(#g62443s)"/><path d="M90 24h20v44c0 8 40 24 40 70v118c0 12-8 20-20 20H70c-12 0-20-8-20-20V138c0-46 40-62 40-70z" fill="url(#g62443)"/><g clip-path="url(#g62443c)"><rect width="200" height="300" fill="url(#g62443v)"/><path d="M78 40h7v240h-7z" fill="#fff" opacity=".28"/><path d="M86 40h2v240h-2z" fill="#fff" opacity=".18"/></g><rect x="63" y="160" width="74" height="42" rx="3" fill="#fbf8f1"/><rect x="66" y="163" width="68" height="36" rx="2" fill="none" stroke="#c9a45c" stroke-width=".8"/><text x="100" y="182" text-anchor="middle" font-family="Georgia,serif" font-size="12.0" font-weight="700" fill="#5b2a10">E</text><text x="100" y="197" text-anchor="middle" font-family="Helvetica,Arial,sans-serif" font-size="8" letter-spacing=".5" fill="#6b6266">1.75L</text></svg>