<svg xmlns="http://www.w3.org/2000/svg" viewBox="0 0 200 300" role="img" aria-label="Menage a Trois Sulrty Red illustration" class="ph"><defs><linearGradient id="g64818" x1="0" x2="1"><stop offset="0" stop-color="#5c1424"/><stop offset=".3" stop-color="#8e2a3e"/><stop offset=".62" stop-color="#5c1424"/><stop offset="1" stop-color="#000"/></linearGradient><linearGradient id="g64818v" x1="0" y1="0" x2="0" y2="1"><stop offset="0" stop-color="#fff" stop-opacity=".18"/><stop offset=".5" stop-color="#fff" stop-opacity="0"/><stop offset="1" stop-color="#000" stop-opacity=".25"/></linearGradient><clipPath id="g64818c"><path d="M88 20h24v62c0 8 22 22 22 52v140c0 8-6 12-12 12H78c-6 0-12-4-12-12V134c0-30 22-44 22-52z"/></clipPath><radialGradient id="g64818s" cx=".5" cy=".5" r=".5"><stop offset="0" stop-color="#000" stop-opacity=".22"/><stop offset="1" stop-color="#000" stop-opacity="0"/></radialGradient></defs><ellipse cx="100" cy="288" rx="62" ry="7" fill="url(#g64818s)"/><path d="M88 20h24v62c0 8 22 22 22 52v140c0 8-6 12-12 12H78c-6 0-12-4-12-12V134c0-30 22-44 22-52z" fill="url(#g64818)"/><g clip-path="url(#g64818c)"><rect width="200" height="300" fill="url(#g64818v)"/><path d="M78 40h7v240h-7z" fill="#fff" opacity=".28"/><path d="M86 40h2v240h-2z" fill="#fff" opacity=".18"/></g><rect x="63" y="160" width="74" height="54" rx="3" fill="#fbf8f1"/><rect x="66" y="163" width="68" height="48" rx="2" fill="none" stroke="#c9a45c" stroke-width=".8"/><text x="100" y="182" text-anchor="middle" font-family="Georgia,serif" font-size="12.0" font-weight="700" fill="#5c1424">MENAGE A</text><text x="100" y="197" text-anchor="middle" font-family="Georgia,serif" font-size="12.0" font-weight="700" fill="#5c1424">TROIS</text><text x="100" y="212" text-anchor="middle" font-family="Helvetica,Arial,sans-serif" font-size="8" letter-spacing=".5" fill="#6b6266">750ML</text></svg>